<svg width="40" height="40" viewBox="0 0 45 45" fill="none" xmlns="http://www.w3.org/2000/svg">
<path d="M0 12C0 5.37258 5.37258 0 12 0H33C39.6274 0 45 5.37258 45 12V33C45 39.6274 39.6274 45 33 45H12C5.37258 45 0 39.6274 0 33V12Z" fill="white"/>
<path d="M12.156 33C12.156 28.896 12.852 25.008 14.244 21.336C15.636 17.64 17.904 14.64 21.048 12.336H7.008V8.52H25.188V12.156C22.884 14.268 21.096 16.44 19.824 18.672C18.576 20.88 17.724 23.136 17.268 25.44C16.812 27.72 16.596 30.24 16.62 33H12.156Z" fill="black"/>
<path fill-rule="evenodd" clip-rule="evenodd" d="M11.156 34V33C11.156 28.7808 11.872 24.7725 13.3085 20.9825C14.4289 18.0084 16.0953 15.4562 18.303 13.336H6.008V7.52H26.188V12.5959L25.8637 12.8931C23.6208 14.9491 21.9045 17.0414 20.6937 19.1656C19.4944 21.2877 18.6826 23.4432 18.249 25.6341L18.2486 25.6361C17.8083 27.8376 17.5964 30.2877 17.62 32.9913L17.6287 34H11.156ZM21.048 12.336C20.6114 12.6559 20.1918 12.9892 19.789 13.336C17.2911 15.4865 15.4427 18.1532 14.244 21.336C12.9655 24.7085 12.2742 28.2631 12.1699 32C12.1606 32.3319 12.156 32.6652 12.156 33H16.62C16.6176 32.724 16.6176 32.4504 16.62 32.1792C16.6416 29.7384 16.8576 27.492 17.268 25.44C17.724 23.136 18.576 20.88 19.824 18.672C21.096 16.44 22.884 14.268 25.188 12.156V8.52H7.008V12.336H21.048Z" fill="black"/>
<path d="M29.62 38.576C27.868 38.576 26.32 38.276 24.976 37.676C23.656 37.076 22.624 36.236 21.88 35.156C21.136 34.076 20.764 32.84 20.764 31.448C20.764 30.104 21.196 28.904 22.06 27.848C22.948 26.792 24.1 26.096 25.516 25.76C24.124 25.424 22.984 24.728 22.096 23.672C21.232 22.616 20.8 21.416 20.8 20.072C20.8 18.68 21.172 17.444 21.916 16.364C22.66 15.284 23.692 14.444 25.012 13.844C26.356 13.244 27.892 12.944 29.62 12.944C31.348 12.944 32.872 13.244 34.192 13.844C35.536 14.444 36.58 15.284 37.324 16.364C38.068 17.444 38.44 18.68 38.44 20.072C38.44 21.416 37.996 22.616 37.108 23.672C36.244 24.728 35.116 25.424 33.724 25.76C35.14 26.096 36.28 26.792 37.144 27.848C38.032 28.904 38.476 30.104 38.476 31.448C38.476 32.84 38.104 34.076 37.36 35.156C36.616 36.236 35.572 37.076 34.228 37.676C32.908 38.276 31.372 38.576 29.62 38.576ZM29.62 23.888C30.988 23.888 32.092 23.564 32.932 22.916C33.772 22.244 34.192 21.368 34.192 20.288C34.192 19.208 33.772 18.332 32.932 17.66C32.092 16.988 30.988 16.652 29.62 16.652C28.252 16.652 27.148 16.988 26.308 17.66C25.468 18.332 25.048 19.208 25.048 20.288C25.048 21.368 25.468 22.244 26.308 22.916C27.148 23.564 28.252 23.888 29.62 23.888ZM29.62 34.868C30.988 34.868 32.104 34.532 32.968 33.86C33.832 33.188 34.264 32.3 34.264 31.196C34.264 30.14 33.832 29.276 32.968 28.604C32.104 27.932 30.988 27.596 29.62 27.596C28.252 27.596 27.136 27.932 26.272 28.604C25.408 29.276 24.976 30.14 24.976 31.196C24.976 32.3 25.408 33.188 26.272 33.86C27.136 34.532 28.252 34.868 29.62 34.868Z" fill="black"/>
<path fill-rule="evenodd" clip-rule="evenodd" d="M24.5683 38.5891L24.5622 38.5864C23.095 37.9195 21.914 36.9681 21.0565 35.7233C20.1903 34.4659 19.764 33.0295 19.764 31.448C19.764 29.8694 20.2783 28.4465 21.286 27.2148L21.2946 27.2043L21.2946 27.2044C21.7809 26.6261 22.3357 26.1417 22.9547 25.751C22.3516 25.3631 21.809 24.8845 21.3306 24.3156L21.322 24.3053L21.322 24.3052C20.3143 23.0735 19.8 21.6506 19.8 20.072C19.8 18.4905 20.2263 17.054 21.0925 15.7967C21.95 14.5518 23.131 13.6005 24.5982 12.9336L24.6043 12.9308L24.6043 12.9309C26.097 12.2645 27.7757 11.944 29.62 11.944C31.4625 11.944 33.131 12.2639 34.6027 12.9322C36.092 13.5976 37.2875 14.5483 38.1475 15.7967C39.0137 17.054 39.44 18.4905 39.44 20.072C39.44 21.656 38.91 23.0807 37.8776 24.3105C37.4092 24.8819 36.8737 25.3621 36.275 25.751C36.8896 26.1425 37.4374 26.6285 37.9136 27.2095C38.946 28.4393 39.476 29.864 39.476 31.448C39.476 33.0295 39.0497 34.4659 38.1835 35.7233C37.3235 36.9717 36.1279 37.9224 34.6385 38.5878C33.1652 39.2569 31.4842 39.576 29.62 39.576C27.7539 39.576 26.0627 39.2562 24.5683 38.5891ZM34.228 37.676C35.572 37.076 36.616 36.236 37.36 35.156C38.104 34.076 38.476 32.84 38.476 31.448C38.476 30.104 38.032 28.904 37.144 27.848C36.6124 27.1982 35.9763 26.6848 35.2357 26.3076C34.7726 26.0718 34.2687 25.8893 33.724 25.76C34.2665 25.629 34.769 25.4434 35.2313 25.2031C35.9552 24.8268 36.5807 24.3164 37.108 23.672C37.996 22.616 38.44 21.416 38.44 20.072C38.44 18.68 38.068 17.444 37.324 16.364C36.58 15.284 35.536 14.444 34.192 13.844C32.872 13.244 31.348 12.944 29.62 12.944C27.892 12.944 26.356 13.244 25.012 13.844C23.692 14.444 22.66 15.284 21.916 16.364C21.172 17.444 20.8 18.68 20.8 20.072C20.8 21.416 21.232 22.616 22.096 23.672C22.6382 24.3168 23.2743 24.8273 24.0044 25.2037C24.4701 25.4437 24.9739 25.6292 25.516 25.76C24.9717 25.8892 24.4664 26.0715 24.0001 26.3071C23.2534 26.6843 22.6066 27.1979 22.06 27.848C21.196 28.904 20.764 30.104 20.764 31.448C20.764 32.84 21.136 34.076 21.88 35.156C22.624 36.236 23.656 37.076 24.976 37.676C26.32 38.276 27.868 38.576 29.62 38.576C31.372 38.576 32.908 38.276 34.228 37.676ZM32.3142 22.1296C31.6947 22.6046 30.8269 22.888 29.62 22.888C28.413 22.888 27.5453 22.6046 26.9258 22.1296C26.3288 21.6493 26.048 21.0626 26.048 20.288C26.048 19.5104 26.331 18.9222 26.9327 18.4409C27.5519 17.9455 28.4163 17.652 29.62 17.652C30.8237 17.652 31.6881 17.9455 32.3073 18.4409C32.909 18.9222 33.192 19.5104 33.192 20.288C33.192 21.0626 32.9112 21.6493 32.3142 22.1296ZM29.62 33.868C30.8223 33.868 31.7056 33.575 32.3541 33.0706C32.972 32.59 33.264 31.9945 33.264 31.196C33.264 30.4615 32.9848 29.884 32.3541 29.3933C31.7056 28.889 30.8223 28.596 29.62 28.596C28.4177 28.596 27.5344 28.889 26.8859 29.3933C26.2552 29.884 25.976 30.4615 25.976 31.196C25.976 31.9945 26.268 32.59 26.8859 33.0706C27.5344 33.575 28.4177 33.868 29.62 33.868ZM32.932 22.916C32.092 23.564 30.988 23.888 29.62 23.888C28.252 23.888 27.148 23.564 26.308 22.916C25.468 22.244 25.048 21.368 25.048 20.288C25.048 19.208 25.468 18.332 26.308 17.66C27.148 16.988 28.252 16.652 29.62 16.652C30.988 16.652 32.092 16.988 32.932 17.66C33.772 18.332 34.192 19.208 34.192 20.288C34.192 21.368 33.772 22.244 32.932 22.916ZM32.968 33.86C32.104 34.532 30.988 34.868 29.62 34.868C28.252 34.868 27.136 34.532 26.272 33.86C25.408 33.188 24.976 32.3 24.976 31.196C24.976 30.14 25.408 29.276 26.272 28.604C27.136 27.932 28.252 27.596 29.62 27.596C30.988 27.596 32.104 27.932 32.968 28.604C33.832 29.276 34.264 30.14 34.264 31.196C34.264 32.3 33.832 33.188 32.968 33.86Z" fill="black"/>
</svg>
