<svg width="40" height="40" viewBox="0 0 40 40" fill="none" xmlns="http://www.w3.org/2000/svg">
<g clip-path="url(#clip0_39_13)">
<path d="M0 20V40H20H40V20V-5.96046e-07H20H0V20ZM21.5938 6.40625C27.175 7.0625 31.825 11.1062 33.2188 16.5312C33.55 17.8312 33.6438 18.5562 33.6438 19.9687C33.6438 21.35 33.5563 22.0875 33.25 23.3187C32.7813 25.2 31.8188 27.125 30.5813 28.6375C30.1188 29.2 29.05 30.2562 28.5 30.6937C27.2875 31.65 25.3313 32.7062 24.325 32.9375C24.0438 33.0062 23.7188 32.9062 23.5625 32.7062C23.4438 32.55 23.4375 32.4687 23.4375 30.3437C23.4375 27.5437 23.3688 27.1125 22.7813 26.3125L22.5563 26.0062L22.8563 25.9687C25.9625 25.525 27.7188 24.225 28.3938 21.8687C28.65 20.9875 28.7125 20.4687 28.7125 19.375C28.7125 18.5125 28.6875 18.2625 28.5688 17.8437C28.3563 17.0562 27.95 16.275 27.5125 15.8L27.3563 15.6312L27.4625 15.2062C27.6938 14.3 27.6563 13.3875 27.3563 12.425L27.2125 11.9687L26.9188 11.95C26.275 11.9062 25.075 12.35 23.9625 13.0437L23.45 13.3625L22.9625 13.2437C21.1813 12.8187 18.4063 12.8437 16.825 13.3062C16.6438 13.3625 16.575 13.3375 16.1063 13.05C15.0313 12.3812 14.0063 11.9875 13.2938 11.975L12.85 11.9687L12.7125 12.4187C12.4125 13.35 12.3813 14.2625 12.6063 15.1875L12.7 15.6L12.3813 16.0187C11.5313 17.1437 11.2063 18.5125 11.375 20.2437C11.6313 22.9625 12.8063 24.6125 15.0938 25.4687C15.475 25.6125 16.6563 25.8937 17.2063 25.9687L17.5063 26.0062L17.3125 26.25C17.075 26.55 16.8375 27.0687 16.7375 27.4875C16.6563 27.8687 16.5563 27.9437 15.925 28.0937C15.375 28.225 14.775 28.2125 14.3 28.0625C13.6625 27.8687 13.2125 27.4937 12.6875 26.7125C12.3313 26.1875 11.8125 25.7 11.3938 25.4937C11.0063 25.3062 10.1938 25.2812 10.0188 25.45C9.91875 25.5562 9.91875 25.5687 10.0375 25.7312C10.1125 25.8312 10.3438 26.0312 10.5563 26.1812C11.0625 26.5312 11.475 27.0937 11.9563 28.05C12.3938 28.9375 12.7063 29.2812 13.3313 29.5625C13.9313 29.8312 14.3813 29.9 15.3938 29.8562C15.8813 29.8312 16.3563 29.8 16.4563 29.775L16.625 29.7375V31.0875C16.625 32.8 16.575 32.9375 15.9063 32.9375C15.1313 32.9375 12.8875 31.775 11.4375 30.625C10.7813 30.1 9.59375 28.8812 9.1 28.2312C7.7 26.3625 6.81875 24.25 6.4625 21.9062C6.31875 20.95 6.31875 19.0875 6.4625 18.0937C6.9125 15.0187 8.3125 12.2687 10.5125 10.15C13.4813 7.29375 17.5125 5.93125 21.5938 6.40625Z" fill="white"/>
</g>
<defs>
<clipPath id="clip0_39_13">
<rect width="40" height="40" rx="12" fill="white"/>
</clipPath>
</defs>
</svg>
