<svg width="89" height="26" viewBox="0 0 89 26" fill="none" xmlns="http://www.w3.org/2000/svg">
<path d="M77.5119 15.0454V25H71.9551V7.54545H77.2392V10.75H77.4324C77.8188 9.68181 78.4778 8.84469 79.4097 8.23863C80.3415 7.62499 81.4513 7.31818 82.7392 7.31818C83.9665 7.31818 85.0309 7.59469 85.9324 8.14772C86.8415 8.69318 87.546 9.45833 88.046 10.4432C88.5536 11.4204 88.8036 12.5644 88.796 13.875V25H83.2392V14.9659C83.2468 13.9962 83.0006 13.2386 82.5006 12.6932C82.0081 12.1477 81.3225 11.875 80.4437 11.875C79.8604 11.875 79.3453 12.0038 78.8983 12.2614C78.4589 12.5114 78.118 12.8712 77.8756 13.3409C77.6407 13.8106 77.5195 14.3788 77.5119 15.0454Z" fill="black"/>
<path d="M60.9756 25.3182C59.165 25.3182 57.5475 25.0303 56.1233 24.4545C54.7066 23.8712 53.593 23.0833 52.7824 22.0909C51.9794 21.0909 51.5779 19.9621 51.5779 18.7045C51.5779 17.7424 51.8089 16.8598 52.271 16.0568C52.7332 15.2538 53.3582 14.5871 54.146 14.0568C54.9415 13.5189 55.8278 13.1742 56.8051 13.0227V12.8409C55.5248 12.6061 54.4756 12.0114 53.6574 11.0568C52.8468 10.1023 52.4415 8.98485 52.4415 7.70454C52.4415 6.49242 52.8089 5.41288 53.5438 4.46591C54.2862 3.51894 55.2975 2.77272 56.5779 2.22727C57.8657 1.68182 59.3316 1.40909 60.9756 1.40909C62.6195 1.40909 64.0816 1.68182 65.3619 2.22727C66.6498 2.77272 67.6612 3.51894 68.396 4.46591C69.1385 5.41288 69.5097 6.49242 69.5097 7.70454C69.5097 8.99242 69.0968 10.1136 68.271 11.0682C67.4529 12.0151 66.4112 12.6061 65.146 12.8409V13.0227C66.1157 13.1742 66.9945 13.5189 67.7824 14.0568C68.5778 14.5871 69.2066 15.2538 69.6688 16.0568C70.1385 16.8598 70.3733 17.7424 70.3733 18.7045C70.3733 19.9621 69.968 21.0909 69.1574 22.0909C68.3468 23.0833 67.2332 23.8712 65.8165 24.4545C64.4074 25.0303 62.7938 25.3182 60.9756 25.3182ZM60.9756 19.8409C61.665 19.8409 62.271 21.2008 62.7938 20.9432C63.3165 20.678 63.7256 20.3106 64.021 19.8409C64.3241 19.3712 64.4756 18.8409 64.4756 18.25C64.4756 17.6439 64.3241 17.1061 64.021 16.6364C63.718 16.1667 63.3013 15.7992 62.771 15.5341C62.2483 15.2614 61.6498 15.125 60.9756 15.125C60.3089 15.125 59.7104 15.2614 59.1801 15.5341C58.6498 15.7992 58.2332 16.1667 57.9301 16.6364C57.6271 17.1061 57.4756 17.6439 57.4756 18.25C57.4756 18.8409 57.6233 19.3712 57.9188 19.8409C58.2218 20.303 58.6347 20.6667 59.1574 20.9318C59.6877 21.197 60.2938 19.8409 60.9756 19.8409ZM60.9756 11.1591C61.5665 11.1591 62.0892 11.0379 62.5438 10.7955C63.0059 10.553 63.3657 10.2159 63.6233 9.78409C63.8885 9.35227 64.021 8.86363 64.021 8.31818C64.021 7.77273 63.8885 7.29166 63.6233 6.875C63.3657 6.45833 63.0097 6.13257 62.5551 5.89772C62.1006 5.6553 61.5741 6.875 60.9756 6.875C60.3847 6.875 59.8582 5.6553 59.396 5.89772C58.9339 6.13257 58.5741 6.45833 58.3165 6.875C58.0589 7.29166 57.9301 7.77273 57.9301 8.31818C57.9301 8.86363 58.0589 9.35227 58.3165 9.78409C58.5816 10.2083 58.9453 10.5455 59.4074 10.7955C59.8695 11.0379 60.3922 11.1591 60.9756 11.1591Z" fill="black"/>
<path d="M29.1977 25L24.6523 7.54546H30.2318L32.5841 18.7273H32.7318L35.2545 7.54546H40.6977L43.2886 18.6477H43.4364L45.7205 7.54546H51.3L46.7432 25H40.8L38.0727 14.8295H37.8795L35.1523 25H29.1977Z" fill="black"/>
<path d="M18.4426 25V7.54545H23.9994V25H18.4426ZM21.2267 5.51136C20.4464 5.51136 19.7759 5.25379 19.2153 4.73864C18.6547 4.21591 18.3744 3.58712 18.3744 2.85227C18.3744 2.125 18.6547 1.50379 19.2153 0.988636C19.7759 0.465908 20.4464 0.204544 21.2267 0.204544C22.0146 0.204544 22.685 0.465908 23.2381 0.988636C23.7987 1.50379 24.079 2.125 24.079 2.85227C24.079 3.58712 23.7987 4.21591 23.2381 4.73864C22.685 5.25379 22.0146 5.51136 21.2267 5.51136Z" fill="black"/>
<path d="M1.70454 25L11.0909 6.40908V6.26136H0.113632V1.72726H16.9091V6.29545L7.48863 25H1.70454Z" fill="black"/>
</svg>
