<svg width="40" height="40" viewBox="0 0 40 40" fill="none" xmlns="http://www.w3.org/2000/svg">
<g clip-path="url(#clip0_39_16)">
<path d="M3.43751 0.265625C1.87501 0.8125 0.750011 1.96875 0.250011 3.53125C0.0156364 4.21875 1.1378e-05 5.95312 0.0312614 20.3125L0.0781364 36.3281L0.468761 37.1094C0.953136 38.1094 1.89064 39.0469 2.89064 39.5312L3.67189 39.9219H20H36.3281L37.1094 39.5312C38.1094 39.0469 39.0469 38.1094 39.5313 37.1094L39.9219 36.3281V20V3.67188L39.5313 2.89062C39.0469 1.89062 38.1094 0.953125 37.1094 0.46875L36.3281 0.078125L20.2344 0.046875C5.90626 0.015625 4.06251 0.03125 3.43751 0.265625ZM17.7031 10.7969C17.9375 10.9688 18.1875 11.375 18.2656 11.6875C18.3594 12 18.9219 15.1406 19.5313 18.6719C20.1406 22.1875 20.7031 25.2188 20.7656 25.3906C20.8594 25.6406 21.0938 25.4062 22.1563 23.9062C23.625 21.8281 24.9844 19.2969 25.4531 17.75C25.8281 16.5156 25.875 15.0156 25.5625 14.3906C25.3125 13.9375 24.2969 12.9531 23.7656 12.6562C23.2656 12.3906 23.375 12.0938 24.2031 11.4375C25.1406 10.7031 26.0938 10.4062 27.3438 10.5C28.8438 10.6094 29.6875 11.4219 29.8125 12.875C30.0469 15.6562 27.9688 19.6406 22.7188 26.5781C20.3438 29.7031 20.6719 29.4844 18.2031 29.5625L16.7969 29.6094L15.375 21.6406L13.9688 13.6719L12.0625 13.625L10.1563 13.5781V12.8281C10.1563 12.2344 10.2188 12.0469 10.4375 11.9844C16.1563 10.2969 16.9219 10.1719 17.7031 10.7969Z" fill="white"/>
</g>
<defs>
<clipPath id="clip0_39_16">
<rect width="40" height="40" rx="10" fill="white"/>
</clipPath>
</defs>
</svg>
